<svg xmlns="http://www.w3.org/2000/svg" version="1.1" xmlns:xlink="http://www.w3.org/1999/xlink" xmlns:svgjs="http://svgjs.dev/svgjs" viewBox="0 0 4.379343934030604 1.6353471032339366"><g transform="matrix(1,0,0,1,0.21757355161696856,0.46467355161696833)"><rect width="4.379343934030604" height="4.379343934030604" x="-0.21757355161696834" y="-1.8366719670153022" fill="#3361e1"></rect><g><path d=" M 0.139 0.005999999999999894 Q 0.163 0.005999999999999894 0.1815 0.023499999999999965 Q 0.2 0.040999999999999925 0.2 0.06699999999999995 L 0.2 0.645 Q 0.2 0.6709999999999999 0.181 0.6885 Q 0.162 0.706 0.137 0.706 Q 0.109 0.706 0.092 0.6885 Q 0.075 0.6709999999999999 0.075 0.645 L 0.075 0.06699999999999995 Q 0.075 0.040999999999999925 0.093 0.023499999999999965 Q 0.111 0.005999999999999894 0.139 0.005999999999999894 M 0.582 0.005999999999999894 Q 0.61 0.005999999999999894 0.627 0.023499999999999965 Q 0.644 0.040999999999999925 0.644 0.06699999999999995 L 0.644 0.645 Q 0.644 0.6709999999999999 0.6265000000000001 0.6885 Q 0.609 0.706 0.58 0.706 Q 0.556 0.706 0.5375 0.6885 Q 0.519 0.6709999999999999 0.519 0.645 L 0.519 0.06699999999999995 Q 0.519 0.040999999999999925 0.538 0.023499999999999965 Q 0.557 0.005999999999999894 0.582 0.005999999999999894 M 0.136 0.29699999999999993 L 0.582 0.29699999999999993 L 0.582 0.412 L 0.136 0.412 L 0.136 0.29699999999999993 M 1.239994140625 0.0029999999999998916 Q 1.262994140625 0.0029999999999998916 1.281494140625 0.020499999999999963 Q 1.299994140625 0.03799999999999992 1.299994140625 0.06499999999999995 Q 1.299994140625 0.07399999999999995 1.297494140625 0.08349999999999991 Q 1.294994140625 0.09299999999999997 1.288994140625 0.10199999999999998 L 1.061994140625 0.42699999999999994 L 1.079994140625 0.35799999999999993 L 1.079994140625 0.645 Q 1.079994140625 0.6709999999999999 1.0624941406250001 0.6885 Q 1.044994140625 0.706 1.021994140625 0.706 Q 0.996994140625 0.706 0.979494140625 0.6885 Q 0.961994140625 0.6709999999999999 0.961994140625 0.645 L 0.961994140625 0.36599999999999994 L 0.969994140625 0.39799999999999996 L 0.753994140625 0.11099999999999999 Q 0.743994140625 0.09799999999999998 0.739994140625 0.08599999999999997 Q 0.735994140625 0.07399999999999995 0.735994140625 0.06399999999999995 Q 0.735994140625 0.03699999999999992 0.756994140625 0.019999999999999907 Q 0.777994140625 0.0029999999999998916 0.799994140625 0.0029999999999998916 Q 0.827994140625 0.0029999999999998916 0.848994140625 0.030999999999999917 L 1.040994140625 0.29599999999999993 L 1.012994140625 0.2919999999999999 L 1.189994140625 0.03299999999999992 Q 1.210994140625 0.0029999999999998916 1.239994140625 0.0029999999999998916 M 1.77600244140625 0.589 Q 1.80200244140625 0.589 1.8195024414062502 0.6054999999999999 Q 1.83700244140625 0.622 1.83700244140625 0.6479999999999999 Q 1.83700244140625 0.6729999999999999 1.8195024414062502 0.6895 Q 1.80200244140625 0.706 1.77600244140625 0.706 L 1.4510024414062501 0.706 Q 1.42500244140625 0.706 1.40750244140625 0.6885 Q 1.39000244140625 0.6709999999999999 1.39000244140625 0.645 L 1.39000244140625 0.06699999999999995 Q 1.39000244140625 0.040999999999999925 1.40800244140625 0.023499999999999965 Q 1.42600244140625 0.005999999999999894 1.45400244140625 0.005999999999999894 Q 1.47800244140625 0.005999999999999894 1.49650244140625 0.023499999999999965 Q 1.51500244140625 0.040999999999999925 1.51500244140625 0.06699999999999995 L 1.51500244140625 0.606 L 1.49300244140625 0.589 L 1.77600244140625 0.589 M 2.20901416015625 0.16299999999999992 L 1.99301416015625 0.6709999999999999 Q 1.98601416015625 0.69 1.97151416015625 0.7005 Q 1.95701416015625 0.711 1.94001416015625 0.711 Q 1.91301416015625 0.711 1.90001416015625 0.696 Q 1.88701416015625 0.6809999999999999 1.88701416015625 0.6589999999999999 Q 1.88701416015625 0.6499999999999999 1.89001416015625 0.6399999999999999 L 2.13901416015625 0.041999999999999926 Q 2.14701416015625 0.02199999999999991 2.16351416015625 0.010999999999999899 Q 2.18001416015625 0 2.19901416015625 0.0020000000000000018 Q 2.21701416015625 0.0020000000000000018 2.23251416015625 0.012499999999999956 Q 2.24801416015625 0.02299999999999991 2.25501416015625 0.041999999999999926 L 2.50101416015625 0.628 Q 2.50601416015625 0.641 2.50601416015625 0.6519999999999999 Q 2.50601416015625 0.6789999999999999 2.48851416015625 0.695 Q 2.47101416015625 0.711 2.45001416015625 0.711 Q 2.43201416015625 0.711 2.4175141601562498 0.7 Q 2.40301416015625 0.689 2.39501416015625 0.6699999999999999 L 2.18001416015625 0.16899999999999993 L 2.20901416015625 0.16299999999999992 M 2.02401416015625 0.5489999999999999 L 2.07901416015625 0.43399999999999994 L 2.34901416015625 0.43399999999999994 L 2.36801416015625 0.5489999999999999 L 2.02401416015625 0.5489999999999999" fill="#ffffff" fill-rule="nonzero"></path></g><g></g><g clip-path="url(#SvgjsClipPath1002)"><g clip-path="url(#SvgjsClipPath1000771c96a0-82ae-4821-b30a-52cba024e80f)"><path d=" M 2.900738735603409 0.5769533308224665 L 3.0531379097073987 0.4657374504832301 L 3.348169149829266 0.6256839353810356 L 3.3258016651130498 0.8009187696301628 L 3.5908938937544237 0.9471670872369479 L 3.5533510675490394 0.7369563196513486 L 3.6411743204225253 0.7049589506816335 L 3.6457430668495836 0.5861231116371979 L 3.5602606911207033 0.5396365203413888 L 3.622883190733985 -0.2410863673354091 L 3.573789346618494 0.37487105732175674 L 3.5748387053384896 0.3746127536368349 L 3.574782201407413 0.37532308877037035 L 3.5736844107464947 0.37559753643560023 L 3.574782201407413 0.37532308877037035 L 3.574782201407413 0.37537152071129287 L 3.582507095984612 0.373393883123609 L 3.938271990023768 0.28445669560889675 L 3.7399028319938123 0.18053789436870726 L 3.6228589747635236 -0.24115901524679392 L 3.6228589747635236 -0.24115901524679392 L 3.1821283123653314 0.10432216333640465 L 3.1340676829895284 0.1414533180439444 L 3.07121916765194 -0.007595980146212905 L 3.132873028446764 0.14293049224209264 L 3.0090648434675797 0.23996388588107953 L 2.914420758914122 0.18850494865052125 L 2.8047304847139563 0.25706843301700943 L 2.836727853683671 0.34848372150894225 L 2.8416275517070355 0.36597572417225466 L 2.6219079797202447 0.42618469872954634 Z M 3.710359348030857 0.34071039499082 L 3.7250907300615657 0.337029567480681 L 3.6303659256065695 0.3611486740602746 Z" fill="#ffffff" transform="matrix(1,0,0,1,0,0)" fill-rule="nonzero"></path></g><g clip-path="url(#SvgjsClipPath1000771c96a0-82ae-4821-b30a-52cba024e80f)"><path d=" M 3.06088702025506 -0.038648926267931955 L 3.134584290359373 0.1403958873337952 L 3.622891262724139 -0.24119130320740884 L 3.0807360440432863 -0.04559083780021117 L 3.06088702025506 -0.038648926267931955 Z" fill="#ffffff" transform="matrix(1,0,0,1,0,0)" fill-rule="nonzero"></path></g><g clip-path="url(#SvgjsClipPath1000771c96a0-82ae-4821-b30a-52cba024e80f)"><path d=" M 3.2155140636415025 -0.09421650648678093 L 2.9834927786603003 -0.21576453422289776 L 3.071235311632248 -0.0076605560674436746 L 3.0569317450796913 -0.04260420144330035 L 3.2155140636415025 -0.09421650648678093 Z" fill="#ffffff" transform="matrix(1,0,0,1,0,0)" fill-rule="nonzero"></path></g><g clip-path="url(#SvgjsClipPath1000771c96a0-82ae-4821-b30a-52cba024e80f)"><path d=" M 2.619098927146718 0.4313346284476788 L 2.89790546705942 0.5821678364618295 C 2.898050762882189 0.5822485563633676 2.898220274675419 0.5822243403929063 2.8983655704981874 0.5822889163141367 C 2.8985108663209562 0.582353492235367 2.8986238741831096 0.5825068600482894 2.898785313986186 0.582563363979366 C 2.8994115073210702 0.5827775880413816 2.90006884049261 0.5828866889827158 2.900730663613255 0.5828862435855185 C 2.9013704615195888 0.5828834052991624 2.9020055882071483 0.5827770965403004 2.902611437319093 0.5825714359695201 C 2.9028134045367295 0.5824832296701183 2.903010146077299 0.5823835113550354 2.9032006926003215 0.5822727723338289 C 2.903561414344964 0.5821320602445282 2.903907473992488 0.5819563268297698 2.90423390734001 0.5817480929738309 L 3.05360608513632 0.4727762258973549 L 3.341776133627446 0.6290015233342526 L 3.31991718429092 0.8001922905163198 L 3.31991718429092 0.8001922905163198 L 3.31991718429092 0.8002326504670886 C 3.319840256773741 0.8010856311228368 3.319950448100539 0.8019451234718572 3.3202400638970726 0.8027511113950786 C 3.3202817437458267 0.80290847070186 3.320335723121809 0.8030623119234098 3.3204015037001486 0.8032112148338456 C 3.320721469220448 0.8039889043504339 3.3212093502465208 0.8046862710148203 3.321830245957374 0.8052534283427605 C 3.3218786778982965 0.8053018602836831 3.3218867498884506 0.8053664362049139 3.3219351818293736 0.8054067961556829 C 3.3219836137702963 0.8054471561064519 3.322209629494603 0.8055520919784515 3.322338781337064 0.8056489558602972 C 3.3225327483654357 0.8058183417841677 3.3227376842323784 0.8059747402089396 3.322952252588754 0.8061171312892182 L 3.5880444812301278 0.952365448896003 C 3.588922453374945 0.9528479952609811 3.589908196619215 0.953100678740498 3.590910037734732 0.9531 C 3.592150340573618 0.9531025882905365 3.5933596595449404 0.9527126676876337 3.5943648495205633 0.9519860653587741 C 3.5962419467870586 0.9506652247821977 3.5971857987841074 0.9483779567760154 3.596786446566707 0.9461177285169516 L 3.5601153952979345 0.7407905149744093 L 3.643256893882209 0.7105044079173025 C 3.6455240501688415 0.7096779571480806 3.647067382392806 0.707563847097484 3.6471637371166548 0.7051526784453246 L 3.6517324835437126 0.5863168394008889 C 3.6517225207237614 0.5860463472526742 3.6516955609074135 0.5857767490891932 3.6516517636421746 0.5855096403855076 C 3.6516399545022296 0.5852690786390747 3.651615706115771 0.5850292890396517 3.65157911573079 0.5847912332618181 C 3.6514943187715208 0.5844706747299621 3.6513836380434235 0.5841575292553443 3.6512481641344836 0.5838548824039755 C 3.651159372242792 0.5836450106599765 3.6511028683117153 0.5834189949356697 3.650997932439716 0.5832252671719782 C 3.650809178685275 0.5829179869177752 3.650595923444171 0.5826264481071515 3.6503602452175645 0.5823534922353666 C 3.6502310933751034 0.5822001244224441 3.6501423014834113 0.5820225406390601 3.6499970056606426 0.5818772448162914 C 3.649594132307995 0.5814714952144646 3.649134645745059 0.5811262005784124 3.6486328393246485 0.5808521020667573 L 3.56654069946037 0.5362139965161712 L 3.5790442122086263 0.3803680826165029 L 3.5845654534738345 0.37895548433958526 L 3.939733020241608 0.2901635926476417 C 3.9421232890651092 0.2895676306140009 3.9438966068190666 0.2875565854799832 3.944188758806513 0.28511052681135485 C 3.944478351107544 0.28266374505139114 3.9432297082343757 0.28029164458025657 3.9410487546366797 0.27914532608768805 L 3.7449236098694847 0.17643732337057066 L 3.6286062317530385 -0.24278148526770943 C 3.6285658718022695 -0.24292678109047813 3.628469007920424 -0.24303978895263129 3.628412503989347 -0.24318508477540046 C 3.6283275513843236 -0.24348207479967407 3.6282168131262553 -0.24377107464390044 3.6280815523930405 -0.2440487877218579 L 3.6280815523930405 -0.2440487877218579 L 3.628033120452118 -0.24411336364308897 C 3.6279805342859537 -0.2441915624738136 3.627923955409858 -0.2442670009752751 3.627863608658888 -0.24433937936739578 C 3.627720593827485 -0.24456325125792672 3.627561421395013 -0.24477638044716893 3.627387361239813 -0.24497706658954688 C 3.6272281316073 -0.2451768762061705 3.6270555330540954 -0.24536565587373815 3.626870753869969 -0.2455421059003146 C 3.6267658179979696 -0.24563896978215977 3.626652810135816 -0.24572776167385163 3.6265317302835087 -0.24582462555569776 C 3.6264106504312013 -0.24592148943754338 3.626160418736433 -0.24609100123077338 3.625958618982588 -0.24622015307323405 C 3.6257568192287426 -0.24634930491569523 3.6257971791795116 -0.246357376905849 3.625700315297666 -0.2464138808369258 C 3.62560345141582 -0.24647038476800262 3.625401651661975 -0.24651074471877146 3.62526442782936 -0.24656724864984828 C 3.6251272039967453 -0.2466237525809251 3.624917332252746 -0.24672061646277071 3.6247316764792084 -0.24678519238400132 C 3.6245460207056706 -0.24684976830523142 3.62441686886321 -0.24689820024615447 3.6242554290601334 -0.24693048820676952 C 3.6239630563400453 -0.24699244574009382 3.6236660815536377 -0.2470302425310912 3.623367510143214 -0.24704349606892317 C 3.623152426231499 -0.24705556454118188 3.622936834842624 -0.24705556454118188 3.622721750930909 -0.24704349606892317 C 3.622592599088448 -0.24704349606892317 3.6224715192361407 -0.24704349606892317 3.6223504393838333 -0.24704349606892317 L 3.6223504393838333 -0.24704349606892317 C 3.622277791472449 -0.24704349606892317 3.6222212875413726 -0.2469950641280006 3.6221486396299882 -0.24698699213784636 C 3.6218501592019257 -0.2469409699590688 3.6215559096026215 -0.24687078198125306 3.6212687927032228 -0.2467771203938466 C 3.6211477128509157 -0.24677712039384708 3.6210266329986083 -0.24677712039384708 3.620905553146301 -0.24672061646277024 L 3.2159822390704234 -0.1006175946787542 L 2.986277615263366 -0.2209628958819527 C 2.984059084476772 -0.22212639641977538 2.9813488308066067 -0.22177105922821583 2.9795052155243167 -0.220074976965033 C 2.977664132827692 -0.21837740539140466 2.9770832643348086 -0.21570863737132634 2.97805225729663 -0.2133994411078297 L 3.065794790268578 -0.005295462952375596 L 3.125721245170486 0.1410255025657935 L 3.0085240201272745 0.23289282250633947 L 2.917310531389187 0.18329044301115865 C 2.9164546872342982 0.18284929946422646 2.9155046660656265 0.18262218070087016 2.914541838766429 0.18262853981854577 C 2.914412686923968 0.18262853981854577 2.9142996790618145 0.18262853981854577 2.914170527219354 0.18262853981854577 C 2.9132614320931074 0.18269538098019117 2.9123801289263747 0.1829716515653741 2.9115955623602874 0.18343573883392733 C 2.9115148424587494 0.18343573883392733 2.9114179785769037 0.18343573883392733 2.911337258675365 0.18351645873546546 L 2.8016389124850463 0.25207994310195364 C 2.7992999404936256 0.253559916270258 2.7982950950591214 0.2564605700911927 2.799217315438902 0.25907028657515563 L 2.8311420364972326 0.35028377531324295 L 2.834370832558758 0.36187515317411856 L 2.6204146615417896 0.4205020176612624 C 2.6180762486331153 0.42114031001417096 2.616362487337926 0.4231386324199423 2.616088074819346 0.4255470115073955 C 2.6158413657882056 0.4279052304079092 2.617026303826079 0.4301829799337952 2.619098927146718 0.4313346284476788 Z M 2.9041451154483178 0.5671216468151219 L 2.847358664716243 0.36431289420056945 L 2.847358664716243 0.36431289420056945 L 2.846236658084863 0.36027689912366245 L 3.0420550672262134 0.46643971362661174 Z M 3.537659118690027 0.7351643378372019 L 3.332824296546867 0.7927741315649658 L 3.352955839990477 0.6350312999791512 Z M 3.3413483181492936 0.8027107514443094 L 3.5486531692795205 0.7444067665633178 L 3.5828622635513803 0.935955092913301 Z M 3.1196995405157413 0.3747661214497573 L 2.9572426666801 0.2880568032174976 L 3.0096460267586544 0.24697844532474278 L 3.554012970741652 0.5429783242650673 L 3.5491213447084413 0.6040106418180478 Z M 2.9245672505374647 0.20070979776308673 L 2.998312952582701 0.2408033728570762 L 2.949501628122593 0.27905653419599563 Z M 3.5654832687502207 0.5491856846933494 L 3.612082867908183 0.5745236617861686 L 3.6304224295376466 0.5845006416162817 L 3.5610033142148545 0.6053344482032731 Z M 3.770770122341994 0.31913396530967764 L 3.708962893734247 0.3349227780505364 L 3.5814254493040014 0.3668071391580976 L 3.6261927066970485 -0.20689341704385641 Z M 3.921716338218298 0.2824306260802897 L 3.7839193943025555 0.3168818800567633 L 3.7492824845525434 0.19209698426896832 Z M 3.1371188952676703 0.13088708293260382 L 3.0687894986156428 -0.035129538560869394 L 3.0827782575522007 -0.040021164594080005 L 3.5900140468276582 -0.22302932536132944 Z M 3.2003064341917185 -0.09551609690154478 L 3.0599345254169097 -0.049828632630962544 L 2.995415108117482 -0.20285742196695045 Z M 3.134648866280603 0.14906520475899043 C 3.1354163963312076 0.14887708667995309 3.1361383197975172 0.1485367121178905 3.136771799691056 0.14806427797991756 L 3.3523908006797103 -0.019736253337547832 C 3.353488889160478 -0.02061362746711265 3.3542339858369017 -0.02185736576544975 3.354489518119702 -0.023239497064303505 L 3.6159170632312447 -0.22816311109915438 L 3.5551107614025708 0.530030852058351 L 3.0198813102736892 0.2390033190527755 Z M 2.91113545892152 0.19754557762279196 L 2.9408161667170907 0.2908174238501018 C 2.94096064063408 0.29115587676330346 2.9411362907299434 0.2914801538633597 2.9413408460770887 0.2917860626685601 C 2.9414512684535423 0.2920232773544724 2.941578034712881 0.2922525354830632 2.9417202296143175 0.29247218183163326 C 2.9422281771130474 0.29320681199406995 2.9428960547115923 0.29381673327208013 2.9436736512315402 0.29425609165562594 L 3.551575229715201 0.6187500958389102 C 3.5524346353296576 0.6192093853788619 3.5533937043302783 0.619450538566879 3.55436813830842 0.6194523589822919 C 3.554945501803024 0.6194507458325956 3.5555194484658452 0.6193637017889452 3.5560713282308747 0.6191940552973698 L 3.639527634431148 0.5941708858205494 L 3.635427063433011 0.7007211558508816 L 3.55385960292873 0.730442223597221 L 3.351026634343716 0.620477501731826 L 3.351026634343716 0.620477501731826 L 3.0560115382021564 0.4605310168340203 L 3.0560115382021564 0.4605310168340203 L 2.847883344076241 0.3477088104541758 L 2.8416194797168823 0.3443105025994204 L 2.8119468439114654 0.2595546059843833 Z M 2.8375511966793607 0.37321629934022527 L 2.8762079575259714 0.5112876909211972 L 2.8912702911529866 0.5650875052963609 L 2.637809800323257 0.42795246457323144 Z" fill="#ffffff" transform="matrix(1,0,0,1,0,0)" fill-rule="nonzero"></path></g></g></g><defs><clipPath id="SvgjsClipPath1002"><path d=" M 2.6159912109375 -0.2471 h 1.3282056198591672 v 1.2002 h -1.3282056198591672 Z"></path></clipPath><clipPath id="SvgjsClipPath1000771c96a0-82ae-4821-b30a-52cba024e80f"><path d=" M 2.6159912109375 -0.2471 L 3.9441968307966673 -0.2471 L 3.9441968307966673 0.9531 L 2.6159912109375 0.9531 Z"></path></clipPath></defs></svg>